<?xml version="1.0" standalone="no"?>
<!DOCTYPE svg PUBLIC "-//W3C//DTD SVG 20010904//EN"
 "http://www.w3.org/TR/2001/REC-SVG-20010904/DTD/svg10.dtd">
<svg version="1.0" xmlns="http://www.w3.org/2000/svg"
 width="130.000000pt" height="130.000000pt" viewBox="0 0 130.000000 130.000000"
 preserveAspectRatio="xMidYMid meet">
<metadata>
Created by potrace 1.14, written by Peter Selinger 2001-2017
</metadata>
<g transform="translate(0.000000,130.000000) scale(0.100000,-0.100000)"
fill="#000000" stroke="none">
<path d="M333 1036 c-172 -67 -316 -125 -320 -129 -19 -20 51 4 331 113 l309
119 309 -120 c170 -66 315 -118 321 -116 7 3 1 9 -13 15 -60 25 -622 242 -624
241 0 -1 -142 -56 -313 -123z"/>
<path d="M652 1083 c-1 -24 -6 -43 -12 -43 -5 0 -10 -4 -10 -10 0 -5 12 -10
26 -10 20 0 24 3 16 13 -6 7 -12 30 -15 52 l-4 40 -1 -42z"/>
<path d="M610 1000 c0 -5 18 -10 40 -10 22 0 40 5 40 10 0 6 -18 10 -40 10
-22 0 -40 -4 -40 -10z"/>
<path d="M628 973 c12 -2 32 -2 45 0 12 2 2 4 -23 4 -25 0 -35 -2 -22 -4z"/>
<path d="M615 950 c3 -5 22 -10 41 -10 19 0 34 5 34 10 0 6 -18 10 -41 10 -24
0 -38 -4 -34 -10z"/>
<path d="M575 907 c-16 -38 -12 -60 14 -91 26 -30 58 -38 96 -22 56 24 73 83
35 127 -10 13 -19 19 -20 12 0 -6 5 -15 10 -18 6 -3 10 -22 10 -41 0 -68 -68
-97 -115 -49 -27 26 -31 54 -14 87 6 11 8 22 5 25 -3 4 -13 -10 -21 -30z"/>
<path d="M661 908 c-1 -31 -17 -38 -24 -10 -4 16 -5 16 -6 0 0 -10 -5 -18 -11
-18 -5 0 -10 -4 -10 -9 0 -5 18 -8 40 -7 41 1 47 5 31 22 -5 5 -11 18 -14 29
-4 15 -5 13 -6 -7z"/>
<path d="M220 530 l0 -380 430 0 430 0 0 34 c0 44 -18 56 -22 15 l-3 -31 -115
0 -115 0 -3 127 c-2 117 -5 129 -28 165 -54 81 -165 102 -239 46 -58 -45 -66
-72 -66 -212 l0 -124 -124 0 -125 0 0 370 c0 240 -4 370 -10 370 -6 0 -10
-133 -10 -380z m440 -14 c0 -1 -31 -24 -70 -50 -68 -45 -88 -64 -52 -52 16 6
16 5 0 -8 -10 -7 -18 -19 -18 -27 0 -8 5 -6 13 6 8 10 19 15 26 11 7 -5 10 -2
9 6 -2 7 5 12 14 12 10 -1 16 2 13 6 -3 4 2 11 11 14 10 4 13 1 9 -7 -3 -6 2
-2 11 11 9 12 23 22 31 22 7 0 23 9 34 19 18 17 18 19 3 18 -9 -1 -19 4 -22
12 -3 10 2 11 19 6 36 -11 45 -23 29 -39 -19 -19 -197 -126 -208 -126 -23 0 4
93 35 121 14 13 23 18 19 12 -12 -21 7 -15 39 12 26 21 55 32 55 21z m15 -37
c-10 -15 -25 -10 -19 6 4 8 10 12 15 9 5 -3 7 -10 4 -15z m91 -28 c-4 -6 -12
-11 -17 -11 -6 0 -7 5 -4 11 4 6 -2 5 -13 -2 -12 -7 -18 -17 -15 -23 3 -5 1
-6 -4 -3 -12 7 -197 -102 -189 -110 5 -5 64 27 124 65 12 8 22 11 22 8 0 -4
-33 -27 -72 -53 -88 -55 -83 -52 -75 -59 3 -3 25 7 49 23 24 16 64 42 91 57
26 15 45 31 42 36 -4 6 2 7 12 3 10 -3 15 -3 11 2 -9 10 10 35 26 35 6 0 2 -7
-8 -15 -11 -8 -16 -15 -10 -15 14 1 49 30 35 30 -7 0 -9 5 -6 10 8 13 25 3 25
-13 0 -21 -261 -180 -277 -168 -4 3 -8 21 -8 39 0 32 5 36 117 103 65 39 118
76 118 82 0 6 7 4 16 -5 9 -9 13 -21 10 -27z m33 -171 c0 -77 -4 -110 -12
-111 -44 -5 -100 -3 -104 4 -2 4 3 7 11 7 9 0 16 4 16 10 0 5 18 22 40 36 48
32 53 52 8 27 -18 -9 -35 -17 -38 -18 -15 -2 -89 -53 -85 -58 3 -4 2 -5 -1 -2
-4 2 -14 0 -24 -5 -23 -12 -33 -1 -14 17 8 8 12 18 9 23 -7 11 131 94 143 86
6 -3 18 6 27 20 9 15 12 24 7 20 -6 -3 -13 -2 -16 3 -3 5 1 11 9 15 8 3 15 12
15 21 0 8 2 15 4 15 3 0 5 -49 5 -110z m-64 71 c-6 -5 -32 -23 -60 -39 -27
-17 -50 -35 -49 -39 0 -4 -20 -23 -45 -40 -45 -33 -68 -42 -56 -24 3 5 -2 11
-10 13 -8 2 38 33 102 70 115 66 137 77 118 59z m-25 -51 c-14 -11 -29 -20
-35 -20 -5 0 1 9 15 20 14 11 30 20 35 20 6 0 -1 -9 -15 -20z m-152 -119 c10
-6 7 -10 -12 -13 -28 -6 -45 7 -24 15 19 8 22 8 36 -2z"/>
<path d="M760 280 c-14 -11 -20 -20 -15 -19 13 0 50 28 44 33 -2 3 -15 -4 -29
-14z"/>
<path d="M620 220 c-12 -7 -10 -9 7 -7 12 0 19 5 17 9 -6 10 -6 10 -24 -2z"/>
<path d="M748 212 c-30 -18 -36 -32 -14 -32 7 0 21 11 30 25 19 29 19 30 -16
7z"/>
<path d="M766 194 c-4 -10 -1 -14 6 -12 15 5 23 28 10 28 -5 0 -13 -7 -16 -16z"/>
<path d="M572 253 c-24 -14 -41 -28 -38 -31 3 -2 27 9 53 27 58 37 46 41 -15
4z"/>
<path d="M1060 861 c0 -28 5 -51 10 -51 6 0 10 20 10 44 0 25 -4 48 -10 51 -6
4 -10 -13 -10 -44z"/>
<path d="M510 880 c0 -5 6 -10 14 -10 8 0 18 5 21 10 3 6 -3 10 -14 10 -12 0
-21 -4 -21 -10z"/>
<path d="M760 880 c0 -5 7 -10 15 -10 8 0 15 5 15 10 0 6 -7 10 -15 10 -8 0
-15 -4 -15 -10z"/>
<path d="M555 799 c-11 -17 1 -21 15 -4 8 9 8 15 2 15 -6 0 -14 -5 -17 -11z"/>
<path d="M735 790 c3 -5 11 -10 16 -10 6 0 7 5 4 10 -3 6 -11 10 -16 10 -6 0
-7 -4 -4 -10z"/>
<path d="M652 750 c0 -14 2 -19 5 -12 2 6 2 18 0 25 -3 6 -5 1 -5 -13z"/>
<path d="M1013 758 c-3 -5 4 -12 15 -15 17 -4 22 -15 24 -51 4 -66 28 -68 28
-3 0 45 2 51 21 51 12 0 19 5 17 12 -5 14 -96 19 -105 6z"/>
<path d="M1042 568 c-18 -18 -15 -34 13 -56 33 -26 33 -44 -1 -36 -20 5 -25 3
-22 -7 7 -20 59 -17 72 4 9 15 6 23 -17 43 -29 25 -29 48 0 37 11 -4 14 -2 11
8 -6 18 -40 23 -56 7z"/>
<path d="M1014 377 c-9 -25 0 -110 14 -115 7 -2 12 6 12 22 0 21 5 26 24 26
18 0 26 -6 28 -22 2 -12 9 -23 16 -26 10 -3 12 11 10 59 -3 62 -20 88 -26 42
-4 -30 -52 -33 -52 -4 0 25 -18 37 -26 18z"/>
</g>
</svg>
